<svg xmlns="http://www.w3.org/2000/svg" xmlns:xlink="http://www.w3.org/1999/xlink" version="1.1" width="256" height="256" viewBox="0 0 256 256" xml:space="preserve">

<defs>
</defs>
<g style="stroke: none; stroke-width: 0; stroke-dasharray: none; stroke-linecap: butt; stroke-linejoin: miter; stroke-miterlimit: 10; fill: none; fill-rule: nonzero; opacity: 1;" transform="translate(1.4065934065934016 1.4065934065934016) scale(2.81 2.81)" >
	<path d="M 12.646 21.365 c -0.057 0 -0.114 -0.002 -0.171 -0.007 c -0.621 -0.053 -1.181 -0.393 -1.516 -0.919 l -4.27 -6.71 c -0.593 -0.932 -0.318 -2.168 0.614 -2.761 c 0.933 -0.592 2.168 -0.318 2.761 0.614 l 2.865 4.502 L 23.86 4.066 c 0.744 -0.819 2.008 -0.878 2.825 -0.134 c 0.817 0.743 0.877 2.008 0.134 2.825 L 14.125 20.711 C 13.745 21.129 13.207 21.365 12.646 21.365 z" style="stroke: none; stroke-width: 1; stroke-dasharray: none; stroke-linecap: butt; stroke-linejoin: miter; stroke-miterlimit: 10; fill: rgb(129,200,61); fill-rule: nonzero; opacity: 1;" transform=" matrix(1 0 0 1 0 0) " stroke-linecap="round" />
	<path d="M 22.933 27.288 H 2 c -1.104 0 -2 -0.896 -2 -2 V 5.703 c 0 -1.104 0.896 -2 2 -2 h 14.917 c 1.104 0 2 0.896 2 2 s -0.896 2 -2 2 H 4 v 15.585 h 16.933 v -5.724 c 0 -1.104 0.896 -2 2 -2 s 2 0.896 2 2 v 7.724 C 24.933 26.393 24.038 27.288 22.933 27.288 z" style="stroke: none; stroke-width: 1; stroke-dasharray: none; stroke-linecap: butt; stroke-linejoin: miter; stroke-miterlimit: 10; fill: rgb(108,148,156); fill-rule: nonzero; opacity: 1;" transform=" matrix(1 0 0 1 0 0) " stroke-linecap="round" />
	<path d="M 88 12.633 H 32.728 c -1.104 0 -2 -0.896 -2 -2 s 0.896 -2 2 -2 H 88 c 1.104 0 2 0.896 2 2 S 89.104 12.633 88 12.633 z" style="stroke: none; stroke-width: 1; stroke-dasharray: none; stroke-linecap: butt; stroke-linejoin: miter; stroke-miterlimit: 10; fill: rgb(108,148,156); fill-rule: nonzero; opacity: 1;" transform=" matrix(1 0 0 1 0 0) " stroke-linecap="round" />
	<path d="M 78.852 22.067 H 32.728 c -1.104 0 -2 -0.896 -2 -2 s 0.896 -2 2 -2 h 46.124 c 1.104 0 2 0.896 2 2 S 79.956 22.067 78.852 22.067 z" style="stroke: none; stroke-width: 1; stroke-dasharray: none; stroke-linecap: butt; stroke-linejoin: miter; stroke-miterlimit: 10; fill: rgb(108,148,156); fill-rule: nonzero; opacity: 1;" transform=" matrix(1 0 0 1 0 0) " stroke-linecap="round" />
	<path d="M 12.646 51.016 c -0.057 0 -0.114 -0.002 -0.171 -0.008 c -0.621 -0.053 -1.182 -0.393 -1.516 -0.919 l -4.27 -6.71 c -0.593 -0.932 -0.318 -2.168 0.614 -2.761 c 0.933 -0.592 2.168 -0.318 2.761 0.614 l 2.865 4.502 L 23.86 33.716 c 0.744 -0.818 2.008 -0.877 2.825 -0.134 c 0.817 0.743 0.877 2.008 0.134 2.825 L 14.125 50.361 C 13.745 50.78 13.207 51.016 12.646 51.016 z" style="stroke: none; stroke-width: 1; stroke-dasharray: none; stroke-linecap: butt; stroke-linejoin: miter; stroke-miterlimit: 10; fill: rgb(129,200,61); fill-rule: nonzero; opacity: 1;" transform=" matrix(1 0 0 1 0 0) " stroke-linecap="round" />
	<path d="M 22.933 56.938 H 2 c -1.104 0 -2 -0.896 -2 -2 V 35.353 c 0 -1.104 0.896 -2 2 -2 h 14.917 c 1.104 0 2 0.896 2 2 s -0.896 2 -2 2 H 4 v 15.585 h 16.933 v -5.724 c 0 -1.104 0.896 -2 2 -2 s 2 0.896 2 2 v 7.724 C 24.933 56.043 24.038 56.938 22.933 56.938 z" style="stroke: none; stroke-width: 1; stroke-dasharray: none; stroke-linecap: butt; stroke-linejoin: miter; stroke-miterlimit: 10; fill: rgb(108,148,156); fill-rule: nonzero; opacity: 1;" transform=" matrix(1 0 0 1 0 0) " stroke-linecap="round" />
	<path d="M 88 42.283 H 32.728 c -1.104 0 -2 -0.896 -2 -2 s 0.896 -2 2 -2 H 88 c 1.104 0 2 0.896 2 2 S 89.104 42.283 88 42.283 z" style="stroke: none; stroke-width: 1; stroke-dasharray: none; stroke-linecap: butt; stroke-linejoin: miter; stroke-miterlimit: 10; fill: rgb(108,148,156); fill-rule: nonzero; opacity: 1;" transform=" matrix(1 0 0 1 0 0) " stroke-linecap="round" />
	<path d="M 78.852 51.717 H 32.728 c -1.104 0 -2 -0.896 -2 -2 s 0.896 -2 2 -2 h 46.124 c 1.104 0 2 0.896 2 2 S 79.956 51.717 78.852 51.717 z" style="stroke: none; stroke-width: 1; stroke-dasharray: none; stroke-linecap: butt; stroke-linejoin: miter; stroke-miterlimit: 10; fill: rgb(108,148,156); fill-rule: nonzero; opacity: 1;" transform=" matrix(1 0 0 1 0 0) " stroke-linecap="round" />
	<path d="M 22.933 86.589 H 2 c -1.104 0 -2 -0.896 -2 -2 V 65.003 c 0 -1.104 0.896 -2 2 -2 h 20.933 c 1.104 0 2 0.896 2 2 v 19.586 C 24.933 85.693 24.038 86.589 22.933 86.589 z M 4 82.589 h 16.933 V 67.003 H 4 V 82.589 z" style="stroke: none; stroke-width: 1; stroke-dasharray: none; stroke-linecap: butt; stroke-linejoin: miter; stroke-miterlimit: 10; fill: rgb(108,148,156); fill-rule: nonzero; opacity: 1;" transform=" matrix(1 0 0 1 0 0) " stroke-linecap="round" />
	<path d="M 88 71.934 H 32.728 c -1.104 0 -2 -0.896 -2 -2 s 0.896 -2 2 -2 H 88 c 1.104 0 2 0.896 2 2 S 89.104 71.934 88 71.934 z" style="stroke: none; stroke-width: 1; stroke-dasharray: none; stroke-linecap: butt; stroke-linejoin: miter; stroke-miterlimit: 10; fill: rgb(108,148,156); fill-rule: nonzero; opacity: 1;" transform=" matrix(1 0 0 1 0 0) " stroke-linecap="round" />
	<path d="M 78.852 81.367 H 32.728 c -1.104 0 -2 -0.896 -2 -2 s 0.896 -2 2 -2 h 46.124 c 1.104 0 2 0.896 2 2 S 79.956 81.367 78.852 81.367 z" style="stroke: none; stroke-width: 1; stroke-dasharray: none; stroke-linecap: butt; stroke-linejoin: miter; stroke-miterlimit: 10; fill: rgb(108,148,156); fill-rule: nonzero; opacity: 1;" transform=" matrix(1 0 0 1 0 0) " stroke-linecap="round" />
</g>
</svg>