<svg xmlns="http://www.w3.org/2000/svg" xmlns:xlink="http://www.w3.org/1999/xlink" version="1.1" width="256" height="256" viewBox="0 0 256 256" xml:space="preserve">

<defs>
</defs>
<g style="stroke: none; stroke-width: 0; stroke-dasharray: none; stroke-linecap: butt; stroke-linejoin: miter; stroke-miterlimit: 10; fill: none; fill-rule: nonzero; opacity: 1;" transform="translate(1.4065934065934016 1.4065934065934016) scale(2.81 2.81)" >
	<path d="M 90 45 c 0 20.339 -13.493 37.526 -32.017 43.099 C 53.872 89.335 49.514 88 45 88 c -15.361 0 -28.924 -5.697 -37.044 -17.444 C 2.939 63.297 0 54.492 0 45 C 0 20.147 20.147 0 45 0 S 90 20.147 90 45 z" style="stroke: none; stroke-width: 1; stroke-dasharray: none; stroke-linecap: butt; stroke-linejoin: miter; stroke-miterlimit: 10; fill: rgb(0,161,173); fill-rule: nonzero; opacity: 1;" transform=" matrix(1 0 0 1 0 0) " stroke-linecap="round" />
	<path d="M 76.391 61.714 c 0.048 -0.024 0.095 -0.05 0.141 -0.078 c 0.329 -0.188 0.646 -0.407 0.953 -0.658 c 0.095 -0.079 0.181 -0.161 0.321 -0.301 c 0.181 -0.167 0.356 -0.336 0.513 -0.518 c 0.087 -0.102 0.165 -0.206 0.24 -0.313 l 0.071 -0.098 c 0.129 -0.173 0.253 -0.346 0.349 -0.509 c 0.075 -0.125 0.139 -0.252 0.242 -0.468 c 0.092 -0.187 0.181 -0.374 0.248 -0.561 c 0.054 -0.146 0.096 -0.292 0.149 -0.496 c 0.055 -0.201 0.104 -0.4 0.132 -0.592 c 0.015 -0.095 0.024 -0.188 0.032 -0.284 c 1.507 -0.001 2.943 -0.219 4.073 -0.619 c 2.467 -0.875 2.859 -2.378 2.875 -3.198 c 0.007 -0.394 -0.076 -0.788 -0.246 -1.174 c -0.051 -0.114 -0.115 -0.23 -0.188 -0.346 c -0.104 -0.171 -0.226 -0.341 -0.361 -0.49 c -0.088 -0.099 -0.184 -0.193 -0.295 -0.293 c -0.114 -0.103 -0.244 -0.204 -0.41 -0.322 c -0.062 -0.044 -0.123 -0.088 -0.201 -0.138 c -0.045 -0.03 -0.093 -0.062 -0.135 -0.086 c -0.041 -0.024 -0.083 -0.046 -0.125 -0.067 c -0.169 -0.094 -0.349 -0.182 -0.537 -0.266 c 0.072 -0.094 0.145 -0.189 0.217 -0.29 c 0.094 -0.132 0.179 -0.261 0.261 -0.39 c 0.093 -0.145 0.184 -0.288 0.252 -0.413 c 0.087 -0.155 0.157 -0.3 0.252 -0.502 c 0.058 -0.121 0.112 -0.242 0.158 -0.363 c 0.065 -0.175 0.11 -0.336 0.165 -0.549 c 0.035 -0.128 0.064 -0.256 0.086 -0.391 c 0.039 -0.272 0.031 -0.5 0.023 -0.652 c -0.001 -0.143 -0.018 -0.344 -0.042 -0.468 c -0.091 -0.47 -0.283 -0.887 -0.568 -1.237 c -0.277 -0.341 -0.633 -0.608 -1.034 -0.783 c -0.204 -0.092 -0.387 -0.138 -0.521 -0.168 c -0.113 -0.035 -0.26 -0.073 -0.44 -0.093 c -0.097 -0.011 -0.19 -0.017 -0.284 -0.012 c -0.885 -0.038 -1.925 0.228 -3.021 0.744 l -0.019 -0.093 c -0.06 -0.273 -0.132 -0.53 -0.212 -0.75 c -0.031 -0.088 -0.065 -0.166 -0.086 -0.207 c -0.083 -0.2 -0.174 -0.385 -0.265 -0.54 c -0.063 -0.107 -0.128 -0.204 -0.203 -0.309 c -0.132 -0.182 -0.273 -0.337 -0.385 -0.439 c -0.08 -0.082 -0.24 -0.222 -0.333 -0.288 c -0.27 -0.192 -0.559 -0.333 -0.859 -0.419 c -0.076 -0.024 -0.153 -0.045 -0.228 -0.059 c -2.302 -0.451 -4.313 1.897 -5.185 5.992 c -0.109 -0.012 -0.218 -0.02 -0.321 -0.024 c -0.235 -0.012 -0.475 -0.008 -0.746 0.012 c -0.093 0.005 -0.184 0.012 -0.277 0.024 c -0.283 0.037 -0.579 0.101 -0.906 0.195 c -0.104 0.03 -0.205 0.063 -0.311 0.1 c -0.283 0.098 -0.562 0.213 -0.757 0.316 c -0.05 0.022 -0.143 0.065 -0.19 0.091 c -0.171 0.091 -0.342 0.195 -0.518 0.313 l 2.213 -4.232 c 0.184 -0.352 0.34 -0.73 0.46 -1.112 c 0.042 -0.129 0.072 -0.257 0.111 -0.445 c 0.061 -0.24 0.116 -0.479 0.148 -0.728 c 0.017 -0.135 0.024 -0.268 0.028 -0.401 l 0.006 -0.108 c 0.014 -0.21 0.022 -0.419 0.014 -0.625 c -0.006 -0.145 -0.022 -0.285 -0.053 -0.501 c -0.025 -0.21 -0.054 -0.418 -0.098 -0.605 c -0.033 -0.149 -0.077 -0.29 -0.144 -0.492 c -0.066 -0.204 -0.137 -0.404 -0.214 -0.571 c -0.04 -0.089 -0.083 -0.174 -0.134 -0.267 c 1.261 -0.827 2.343 -1.795 3.069 -2.749 c 1.586 -2.083 1.091 -3.557 0.66 -4.241 c -0.21 -0.338 -0.499 -0.626 -0.851 -0.854 c -0.104 -0.068 -0.221 -0.13 -0.354 -0.192 c -0.183 -0.086 -0.373 -0.159 -0.564 -0.208 c -0.128 -0.035 -0.26 -0.063 -0.401 -0.084 c -0.155 -0.023 -0.32 -0.038 -0.523 -0.045 c -0.087 -0.004 -0.174 -0.003 -0.267 -0.006 c -0.04 0 -0.079 -0.001 -0.115 0.001 c -0.061 0.002 -0.12 0.007 -0.18 0.015 c -0.188 0.014 -0.383 0.038 -0.582 0.071 c 0.01 -0.121 0.017 -0.241 0.022 -0.363 c 0.006 -0.163 0.006 -0.316 0.005 -0.469 c -0.001 -0.171 -0.004 -0.341 -0.015 -0.476 c -0.011 -0.165 -0.03 -0.315 -0.051 -0.465 l -0.015 -0.102 c -0.018 -0.133 -0.039 -0.264 -0.063 -0.376 c -0.039 -0.18 -0.089 -0.337 -0.16 -0.546 c -0.043 -0.135 -0.092 -0.269 -0.149 -0.394 c -0.109 -0.235 -0.229 -0.411 -0.334 -0.553 c -0.079 -0.12 -0.205 -0.283 -0.297 -0.377 c -0.331 -0.337 -0.716 -0.578 -1.144 -0.716 c -0.415 -0.134 -0.857 -0.165 -1.302 -0.09 c -0.228 0.036 -0.41 0.101 -0.524 0.145 c -0.132 0.039 -0.264 0.086 -0.402 0.154 c -0.094 0.046 -0.183 0.099 -0.267 0.158 c -0.756 0.455 -1.481 1.243 -2.115 2.272 c -0.025 -0.025 -0.05 -0.049 -0.071 -0.07 c -0.2 -0.195 -0.399 -0.37 -0.578 -0.503 c -0.077 -0.059 -0.15 -0.107 -0.188 -0.128 c -0.182 -0.125 -0.363 -0.232 -0.524 -0.311 c -0.112 -0.056 -0.221 -0.102 -0.345 -0.149 c -0.201 -0.075 -0.394 -0.125 -0.57 -0.157 c -0.105 -0.022 -0.304 -0.05 -0.411 -0.054 c -0.333 -0.013 -0.658 0.026 -0.962 0.121 c -0.075 0.021 -0.148 0.045 -0.217 0.073 c -0.57 0.232 -1.427 0.804 -1.784 2.189 c -1.083 -1.367 -2.758 -2.246 -4.634 -2.246 H 40.375 c -0.809 -0.678 -1.838 -1.063 -2.909 -1.063 h -1.607 c -0.721 -1.415 -2.193 -2.386 -3.887 -2.386 s -3.166 0.971 -3.887 2.386 h -1.607 c -1.071 0 -2.1 0.385 -2.909 1.063 H 10.875 c -3.26 0 -5.912 2.652 -5.912 5.912 v 33.258 c 0.893 1.737 1.889 3.412 2.993 5.008 C 16.076 82.303 29.639 88 45 88 c 4.514 0 8.872 1.335 12.983 0.099 c 4.709 -1.417 9.09 -3.587 13.01 -6.366 c 0.063 -0.4 0.111 -0.812 0.143 -1.274 c 0.009 -0.119 0.017 -0.237 0.022 -0.36 c 0.023 -0.501 0.023 -0.947 0.002 -1.348 c -0.004 -0.077 -0.011 -0.152 -0.02 -0.238 c -0.026 -0.378 -0.07 -0.747 -0.126 -1.109 c -0.001 -0.001 -0.016 -0.098 -0.017 -0.1 l -0.049 -0.29 c -0.076 -0.399 -0.168 -0.789 -0.277 -1.161 c -0.029 -0.099 -0.062 -0.194 -0.121 -0.369 c -0.095 -0.286 -0.198 -0.563 -0.344 -0.913 c -0.035 -0.086 -0.071 -0.172 -0.114 -0.269 c -0.019 -0.043 -0.043 -0.1 -0.059 -0.134 c -0.023 -0.048 -0.048 -0.095 -0.074 -0.14 c -1.25 -2.546 -3.371 -4.388 -5.871 -5.265 c 0.042 -0.078 0.082 -0.158 0.12 -0.238 L 76.391 61.714 z" style="stroke: none; stroke-width: 1; stroke-dasharray: none; stroke-linecap: butt; stroke-linejoin: miter; stroke-miterlimit: 10; fill: rgb(0,146,157); fill-rule: nonzero; opacity: 1;" transform=" matrix(1 0 0 1 0 0) " stroke-linecap="round" />
	<path d="M 65.164 32.78 l 2.842 0.915 c 1.828 0.589 2.494 3.183 1.368 5.336 L 55.762 65.067 c -0.607 1.161 -1.98 0.719 -1.796 -0.578 l 4.131 -29.088 c 0.342 -2.405 2.396 -4.125 4.224 -3.536 L 65.164 32.78 z" style="stroke: none; stroke-width: 1; stroke-dasharray: none; stroke-linecap: butt; stroke-linejoin: miter; stroke-miterlimit: 10; fill: rgb(252,112,63); fill-rule: nonzero; opacity: 1;" transform=" matrix(1 0 0 1 0 0) " stroke-linecap="round" />
	<path d="M 61.241 24.287 c 0.92 -0.375 2.428 1.159 3.504 3.49 c 0.051 -0.185 0.106 -0.371 0.166 -0.559 c 0.877 -2.726 2.418 -4.669 3.44 -4.34 s 1.14 2.806 0.262 5.532 c -0.06 0.188 -0.125 0.371 -0.191 0.551 c 2.234 -1.266 4.353 -1.632 4.882 -0.791 c 0.572 0.909 -0.93 2.882 -3.355 4.406 c -2.15 1.352 -4.301 1.895 -5.16 1.366 c -1.005 -0.071 -2.436 -1.767 -3.394 -4.119 C 60.316 27.17 60.246 24.692 61.241 24.287 z" style="stroke: none; stroke-width: 1; stroke-dasharray: none; stroke-linecap: butt; stroke-linejoin: miter; stroke-miterlimit: 10; fill: rgb(163,226,97); fill-rule: nonzero; opacity: 1;" transform=" matrix(1 0 0 1 0 0) " stroke-linecap="round" />
	<path d="M 67.152 28.552 c 0.066 -0.18 0.131 -0.363 0.191 -0.551 c 0.686 -2.13 0.761 -4.103 0.275 -5.023 c 0.261 -0.13 0.51 -0.172 0.733 -0.1 c 0.941 0.303 1.113 2.428 0.45 4.891 C 68.274 27.969 67.717 28.232 67.152 28.552 z" style="stroke: none; stroke-width: 1; stroke-dasharray: none; stroke-linecap: butt; stroke-linejoin: miter; stroke-miterlimit: 10; fill: rgb(141,201,78); fill-rule: nonzero; opacity: 1;" transform=" matrix(1 0 0 1 0 0) " stroke-linecap="round" />
	<path d="M 63.641 26.809 c -0.06 0.188 -0.115 0.374 -0.166 0.559 c -0.647 -1.401 -1.449 -2.51 -2.186 -3.094 c 0.686 -0.228 1.676 0.549 2.574 1.906 C 63.785 26.385 63.71 26.594 63.641 26.809 z" style="stroke: none; stroke-width: 1; stroke-dasharray: none; stroke-linecap: butt; stroke-linejoin: miter; stroke-miterlimit: 10; fill: rgb(141,201,78); fill-rule: nonzero; opacity: 1;" transform=" matrix(1 0 0 1 0 0) " stroke-linecap="round" />
	<path d="M 68.679 32.167 c 2.424 -1.524 3.927 -3.497 3.355 -4.406 c -0.009 -0.014 -0.021 -0.025 -0.031 -0.038 c 0.624 -0.029 1.09 0.111 1.302 0.447 c 0.572 0.909 -0.93 2.882 -3.355 4.406 c -2.15 1.352 -4.301 1.895 -5.16 1.366 c -0.194 -0.014 -0.407 -0.105 -0.626 -0.233 C 65.22 33.81 66.943 33.258 68.679 32.167 z" style="stroke: none; stroke-width: 1; stroke-dasharray: none; stroke-linecap: butt; stroke-linejoin: miter; stroke-miterlimit: 10; fill: rgb(141,201,78); fill-rule: nonzero; opacity: 1;" transform=" matrix(1 0 0 1 0 0) " stroke-linecap="round" />
	<path d="M 60.451 32.009 c -0.041 0.143 -0.082 0.287 -0.104 0.439 l -2.803 19.738 c -0.125 0.88 0.807 1.18 1.219 0.392 l 9.236 -17.667 c 0.183 -0.35 0.293 -0.718 0.342 -1.08 c 1.571 0.781 2.087 3.184 1.034 5.2 L 55.762 65.067 c -0.607 1.161 -1.98 0.719 -1.796 -0.578 l 4.131 -29.088 C 58.323 33.816 59.293 32.534 60.451 32.009 z" style="stroke: none; stroke-width: 1; stroke-dasharray: none; stroke-linecap: butt; stroke-linejoin: miter; stroke-miterlimit: 10; fill: rgb(234,102,61); fill-rule: nonzero; opacity: 1;" transform=" matrix(1 0 0 1 0 0) " stroke-linecap="round" />
	<path d="M 59.468 37.057 l 4.549 1.464 c 0.351 0.113 0.727 -0.08 0.84 -0.431 c 0.113 -0.351 -0.08 -0.727 -0.431 -0.84 l -4.549 -1.464 c -0.351 -0.113 -0.727 0.08 -0.84 0.431 C 58.924 36.569 59.117 36.944 59.468 37.057 z" style="stroke: none; stroke-width: 1; stroke-dasharray: none; stroke-linecap: butt; stroke-linejoin: miter; stroke-miterlimit: 10; fill: rgb(234,102,61); fill-rule: nonzero; opacity: 1;" transform=" matrix(1 0 0 1 0 0) " stroke-linecap="round" />
	<path d="M 58.446 40.234 l 3.913 1.26 c 0.351 0.113 0.727 -0.08 0.84 -0.431 c 0.113 -0.351 -0.08 -0.727 -0.431 -0.84 l -3.913 -1.26 c -0.351 -0.113 -0.727 0.08 -0.84 0.431 C 57.902 39.745 58.095 40.121 58.446 40.234 z" style="stroke: none; stroke-width: 1; stroke-dasharray: none; stroke-linecap: butt; stroke-linejoin: miter; stroke-miterlimit: 10; fill: rgb(234,102,61); fill-rule: nonzero; opacity: 1;" transform=" matrix(1 0 0 1 0 0) " stroke-linecap="round" />
	<path d="M 58.059 43.614 l 2.643 0.851 c 0.351 0.113 0.727 -0.08 0.84 -0.431 c 0.113 -0.351 -0.08 -0.727 -0.431 -0.84 l -2.643 -0.851 c -0.351 -0.113 -0.727 0.08 -0.84 0.431 C 57.515 43.126 57.708 43.501 58.059 43.614 z" style="stroke: none; stroke-width: 1; stroke-dasharray: none; stroke-linecap: butt; stroke-linejoin: miter; stroke-miterlimit: 10; fill: rgb(234,102,61); fill-rule: nonzero; opacity: 1;" transform=" matrix(1 0 0 1 0 0) " stroke-linecap="round" />
	<path d="M 57.672 46.995 l 1.372 0.442 c 0.351 0.113 0.727 -0.08 0.84 -0.431 c 0.113 -0.351 -0.08 -0.727 -0.431 -0.84 l -1.372 -0.442 c -0.351 -0.113 -0.727 0.08 -0.84 0.431 C 57.128 46.507 57.32 46.882 57.672 46.995 z" style="stroke: none; stroke-width: 1; stroke-dasharray: none; stroke-linecap: butt; stroke-linejoin: miter; stroke-miterlimit: 10; fill: rgb(234,102,61); fill-rule: nonzero; opacity: 1;" transform=" matrix(1 0 0 1 0 0) " stroke-linecap="round" />
	<path d="M 76.394 48.389 l 1.878 2.322 c 1.208 1.493 0.344 4.029 -1.776 5.215 L 50.85 70.261 c -1.144 0.639 -2.051 -0.483 -1.187 -1.467 l 19.382 -22.08 c 1.603 -1.826 4.263 -2.14 5.471 -0.646 L 76.394 48.389 z" style="stroke: none; stroke-width: 1; stroke-dasharray: none; stroke-linecap: butt; stroke-linejoin: miter; stroke-miterlimit: 10; fill: rgb(252,112,63); fill-rule: nonzero; opacity: 1;" transform=" matrix(1 0 0 1 0 0) " stroke-linecap="round" />
	<path d="M 77.761 39.134 c 0.975 0.19 1.397 2.299 1.021 4.839 c 0.144 -0.127 0.292 -0.253 0.445 -0.377 c 2.227 -1.801 4.579 -2.584 5.255 -1.749 c 0.675 0.835 -0.582 2.972 -2.809 4.773 c -0.153 0.124 -0.308 0.242 -0.462 0.357 c 2.563 0.163 4.536 1.017 4.519 2.011 c -0.019 1.074 -2.356 1.902 -5.22 1.85 c -2.54 -0.046 -4.637 -0.769 -5.066 -1.681 c -0.802 -0.61 -1.071 -2.812 -0.585 -5.305 C 75.408 41.041 76.707 38.929 77.761 39.134 z" style="stroke: none; stroke-width: 1; stroke-dasharray: none; stroke-linecap: butt; stroke-linejoin: miter; stroke-miterlimit: 10; fill: rgb(163,226,97); fill-rule: nonzero; opacity: 1;" transform=" matrix(1 0 0 1 0 0) " stroke-linecap="round" />
	<path d="M 80.373 45.939 c 0.154 -0.114 0.308 -0.232 0.462 -0.357 c 1.74 -1.407 2.883 -3.016 2.98 -4.053 c 0.289 0.034 0.521 0.135 0.669 0.318 c 0.622 0.769 -0.398 2.641 -2.302 4.339 C 81.631 46.066 81.021 45.981 80.373 45.939 z" style="stroke: none; stroke-width: 1; stroke-dasharray: none; stroke-linecap: butt; stroke-linejoin: miter; stroke-miterlimit: 10; fill: rgb(141,201,78); fill-rule: nonzero; opacity: 1;" transform=" matrix(1 0 0 1 0 0) " stroke-linecap="round" />
	<path d="M 78.389 42.559 c -0.153 0.124 -0.301 0.25 -0.445 0.377 c 0.226 -1.527 0.162 -2.894 -0.135 -3.786 c 0.699 0.185 1.102 1.377 1.111 3.004 C 78.742 42.283 78.565 42.416 78.389 42.559 z" style="stroke: none; stroke-width: 1; stroke-dasharray: none; stroke-linecap: butt; stroke-linejoin: miter; stroke-miterlimit: 10; fill: rgb(141,201,78); fill-rule: nonzero; opacity: 1;" transform=" matrix(1 0 0 1 0 0) " stroke-linecap="round" />
	<path d="M 79.671 49.801 c 2.863 0.052 5.2 -0.777 5.22 -1.85 c 0 -0.016 -0.004 -0.032 -0.005 -0.049 c 0.538 0.317 0.852 0.69 0.844 1.087 c -0.019 1.074 -2.356 1.902 -5.22 1.85 c -2.54 -0.046 -4.637 -0.769 -5.066 -1.681 c -0.155 -0.118 -0.283 -0.311 -0.397 -0.538 C 75.877 49.282 77.622 49.763 79.671 49.801 z" style="stroke: none; stroke-width: 1; stroke-dasharray: none; stroke-linecap: butt; stroke-linejoin: miter; stroke-miterlimit: 10; fill: rgb(141,201,78); fill-rule: nonzero; opacity: 1;" transform=" matrix(1 0 0 1 0 0) " stroke-linecap="round" />
	<path d="M 72.873 45.164 c -0.113 0.098 -0.226 0.195 -0.327 0.311 L 59.394 60.456 c -0.586 0.668 0.029 1.429 0.805 0.996 L 77.6 51.725 c 0.345 -0.193 0.638 -0.441 0.877 -0.717 c 0.887 1.514 0.004 3.807 -1.982 4.917 L 50.85 70.261 c -1.144 0.639 -2.051 -0.483 -1.187 -1.467 l 19.382 -22.08 C 70.102 45.511 71.616 44.969 72.873 45.164 z" style="stroke: none; stroke-width: 1; stroke-dasharray: none; stroke-linecap: butt; stroke-linejoin: miter; stroke-miterlimit: 10; fill: rgb(234,102,61); fill-rule: nonzero; opacity: 1;" transform=" matrix(1 0 0 1 0 0) " stroke-linecap="round" />
	<path d="M 69.287 48.85 l 3.005 3.715 c 0.232 0.287 0.652 0.331 0.939 0.099 s 0.331 -0.652 0.099 -0.939 l -3.005 -3.715 c -0.232 -0.287 -0.652 -0.331 -0.939 -0.099 C 69.099 48.144 69.055 48.563 69.287 48.85 z" style="stroke: none; stroke-width: 1; stroke-dasharray: none; stroke-linecap: butt; stroke-linejoin: miter; stroke-miterlimit: 10; fill: rgb(234,102,61); fill-rule: nonzero; opacity: 1;" transform=" matrix(1 0 0 1 0 0) " stroke-linecap="round" />
	<path d="M 66.692 50.948 l 2.585 3.197 c 0.232 0.287 0.652 0.331 0.939 0.099 c 0.287 -0.232 0.331 -0.652 0.099 -0.939 l -2.585 -3.197 c -0.232 -0.287 -0.652 -0.331 -0.939 -0.099 S 66.46 50.662 66.692 50.948 z" style="stroke: none; stroke-width: 1; stroke-dasharray: none; stroke-linecap: butt; stroke-linejoin: miter; stroke-miterlimit: 10; fill: rgb(234,102,61); fill-rule: nonzero; opacity: 1;" transform=" matrix(1 0 0 1 0 0) " stroke-linecap="round" />
	<path d="M 64.517 53.566 l 1.746 2.159 c 0.232 0.287 0.652 0.331 0.939 0.099 c 0.287 -0.232 0.331 -0.652 0.099 -0.939 l -1.746 -2.159 c -0.232 -0.287 -0.652 -0.331 -0.939 -0.099 C 64.329 52.859 64.285 53.279 64.517 53.566 z" style="stroke: none; stroke-width: 1; stroke-dasharray: none; stroke-linecap: butt; stroke-linejoin: miter; stroke-miterlimit: 10; fill: rgb(234,102,61); fill-rule: nonzero; opacity: 1;" transform=" matrix(1 0 0 1 0 0) " stroke-linecap="round" />
	<path d="M 62.342 56.183 l 0.907 1.121 c 0.232 0.287 0.652 0.331 0.939 0.099 c 0.287 -0.232 0.331 -0.652 0.099 -0.939 l -0.907 -1.121 c -0.232 -0.287 -0.652 -0.331 -0.939 -0.099 S 62.11 55.896 62.342 56.183 z" style="stroke: none; stroke-width: 1; stroke-dasharray: none; stroke-linecap: butt; stroke-linejoin: miter; stroke-miterlimit: 10; fill: rgb(234,102,61); fill-rule: nonzero; opacity: 1;" transform=" matrix(1 0 0 1 0 0) " stroke-linecap="round" />
	<path d="M 53.797 89.134 c 1.42 -0.283 2.815 -0.632 4.184 -1.044 V 28.29 c 0 -2.16 -1.751 -3.912 -3.912 -3.912 H 11.875 c -2.16 0 -3.912 1.751 -3.912 3.912 v 42.261 c 1.266 1.832 2.665 3.566 4.182 5.187 L 53.797 89.134 z" style="stroke: none; stroke-width: 1; stroke-dasharray: none; stroke-linecap: butt; stroke-linejoin: miter; stroke-miterlimit: 10; fill: rgb(52,96,143); fill-rule: nonzero; opacity: 1;" transform=" matrix(1 0 0 1 0 0) " stroke-linecap="round" />
	<path d="M 45 27.725 H 12.148 v 48.011 c 7.701 8.228 18.45 13.567 30.452 14.198 c 0.031 0.002 0.063 0.005 0.094 0.007 C 43.457 89.98 44.226 90 45 90 c 3.011 0 5.951 -0.302 8.797 -0.866 V 36.56" style="stroke: none; stroke-width: 1; stroke-dasharray: none; stroke-linecap: butt; stroke-linejoin: miter; stroke-miterlimit: 10; fill: rgb(249,249,249); fill-rule: nonzero; opacity: 1;" transform=" matrix(1 0 0 1 0 0) " stroke-linecap="round" />
	<polygon points="53.8,36.56 45,27.73 45,36.56 " style="stroke: none; stroke-width: 1; stroke-dasharray: none; stroke-linecap: butt; stroke-linejoin: miter; stroke-miterlimit: 10; fill: rgb(240,240,240); fill-rule: nonzero; opacity: 1;" transform="  matrix(1 0 0 1 0 0) "/>
	<polygon points="53.8,36.56 45,27.73 47,34.56 " style="stroke: none; stroke-width: 1; stroke-dasharray: none; stroke-linecap: butt; stroke-linejoin: miter; stroke-miterlimit: 10; fill: rgb(255,255,255); fill-rule: nonzero; opacity: 1;" transform="  matrix(1 0 0 1 0 0) "/>
	<path d="M 38.466 23.316 h -3.137 c 0 -0.009 0.003 -0.017 0.003 -0.026 c 0 -1.303 -1.057 -2.36 -2.36 -2.36 c -1.303 0 -2.36 1.057 -2.36 2.36 c 0 0.009 0.003 0.017 0.003 0.026 h -3.137 c -1.401 0 -2.537 1.136 -2.537 2.537 v 3.458 h 16.062 v -3.458 C 41.003 24.452 39.867 23.316 38.466 23.316 z M 32.972 24.264 c -0.538 0 -0.974 -0.436 -0.974 -0.974 c 0 -0.538 0.436 -0.974 0.974 -0.974 c 0.538 0 0.974 0.436 0.974 0.974 C 33.946 23.828 33.51 24.264 32.972 24.264 z" style="stroke: none; stroke-width: 1; stroke-dasharray: none; stroke-linecap: butt; stroke-linejoin: miter; stroke-miterlimit: 10; fill: rgb(249,249,249); fill-rule: nonzero; opacity: 1;" transform=" matrix(1 0 0 1 0 0) " stroke-linecap="round" />
	<path d="M 22.424 44.519 h -4.169 c -1.058 0 -1.916 -0.858 -1.916 -1.916 v -4.169 c 0 -1.058 0.858 -1.916 1.916 -1.916 h 4.169 c 1.058 0 1.916 0.858 1.916 1.916 v 4.169 C 24.34 43.661 23.482 44.519 22.424 44.519 z" style="stroke: none; stroke-width: 1; stroke-dasharray: none; stroke-linecap: butt; stroke-linejoin: miter; stroke-miterlimit: 10; fill: rgb(255,255,255); fill-rule: nonzero; opacity: 1;" transform=" matrix(1 0 0 1 0 0) " stroke-linecap="round" />
	<polygon points="20.86,43.19 18.8,39.75 20.09,38.98 21.17,40.78 25.14,36.89 26.19,37.96 " style="stroke: none; stroke-width: 1; stroke-dasharray: none; stroke-linecap: butt; stroke-linejoin: miter; stroke-miterlimit: 10; fill: rgb(141,201,78); fill-rule: nonzero; opacity: 1;" transform="  matrix(1 0 0 1 0 0) "/>
	<rect x="28.58" y="42.1" rx="0" ry="0" width="9.74" height="1" style="stroke: none; stroke-width: 1; stroke-dasharray: none; stroke-linecap: butt; stroke-linejoin: miter; stroke-miterlimit: 10; fill: rgb(204,204,204); fill-rule: nonzero; opacity: 1;" transform=" matrix(1 0 0 1 0 0) "/>
	<rect x="28.58" y="38.75" rx="0" ry="0" width="18.75" height="1" style="stroke: none; stroke-width: 1; stroke-dasharray: none; stroke-linecap: butt; stroke-linejoin: miter; stroke-miterlimit: 10; fill: rgb(204,204,204); fill-rule: nonzero; opacity: 1;" transform=" matrix(1 0 0 1 0 0) "/>
	<path d="M 22.424 54.547 h -4.169 c -1.058 0 -1.916 -0.858 -1.916 -1.916 v -4.169 c 0 -1.058 0.858 -1.916 1.916 -1.916 h 4.169 c 1.058 0 1.916 0.858 1.916 1.916 v 4.169 C 24.34 53.689 23.482 54.547 22.424 54.547 z" style="stroke: none; stroke-width: 1; stroke-dasharray: none; stroke-linecap: butt; stroke-linejoin: miter; stroke-miterlimit: 10; fill: rgb(255,255,255); fill-rule: nonzero; opacity: 1;" transform=" matrix(1 0 0 1 0 0) " stroke-linecap="round" />
	<polygon points="20.86,53.22 18.8,49.78 20.09,49.01 21.17,50.81 25.14,46.91 26.19,47.98 " style="stroke: none; stroke-width: 1; stroke-dasharray: none; stroke-linecap: butt; stroke-linejoin: miter; stroke-miterlimit: 10; fill: rgb(141,201,78); fill-rule: nonzero; opacity: 1;" transform="  matrix(1 0 0 1 0 0) "/>
	<rect x="28.58" y="52.12" rx="0" ry="0" width="13.74" height="1" style="stroke: none; stroke-width: 1; stroke-dasharray: none; stroke-linecap: butt; stroke-linejoin: miter; stroke-miterlimit: 10; fill: rgb(204,204,204); fill-rule: nonzero; opacity: 1;" transform=" matrix(1 0 0 1 0 0) "/>
	<rect x="28.58" y="48.78" rx="0" ry="0" width="18.75" height="1" style="stroke: none; stroke-width: 1; stroke-dasharray: none; stroke-linecap: butt; stroke-linejoin: miter; stroke-miterlimit: 10; fill: rgb(204,204,204); fill-rule: nonzero; opacity: 1;" transform=" matrix(1 0 0 1 0 0) "/>
	<path d="M 22.424 64.574 h -4.169 c -1.058 0 -1.916 -0.858 -1.916 -1.915 V 58.49 c 0 -1.058 0.858 -1.916 1.916 -1.916 h 4.169 c 1.058 0 1.916 0.858 1.916 1.916 v 4.169 C 24.34 63.717 23.482 64.574 22.424 64.574 z" style="stroke: none; stroke-width: 1; stroke-dasharray: none; stroke-linecap: butt; stroke-linejoin: miter; stroke-miterlimit: 10; fill: rgb(255,255,255); fill-rule: nonzero; opacity: 1;" transform=" matrix(1 0 0 1 0 0) " stroke-linecap="round" />
	<polygon points="20.86,63.24 18.8,59.8 20.09,59.03 21.17,60.84 25.14,56.94 26.19,58.01 " style="stroke: none; stroke-width: 1; stroke-dasharray: none; stroke-linecap: butt; stroke-linejoin: miter; stroke-miterlimit: 10; fill: rgb(141,201,78); fill-rule: nonzero; opacity: 1;" transform="  matrix(1 0 0 1 0 0) "/>
	<rect x="28.58" y="62.15" rx="0" ry="0" width="5.75" height="1" style="stroke: none; stroke-width: 1; stroke-dasharray: none; stroke-linecap: butt; stroke-linejoin: miter; stroke-miterlimit: 10; fill: rgb(204,204,204); fill-rule: nonzero; opacity: 1;" transform=" matrix(1 0 0 1 0 0) "/>
	<rect x="28.58" y="58.8" rx="0" ry="0" width="18.75" height="1" style="stroke: none; stroke-width: 1; stroke-dasharray: none; stroke-linecap: butt; stroke-linejoin: miter; stroke-miterlimit: 10; fill: rgb(204,204,204); fill-rule: nonzero; opacity: 1;" transform=" matrix(1 0 0 1 0 0) "/>
	<path d="M 22.424 74.602 h -4.169 c -1.058 0 -1.916 -0.858 -1.916 -1.916 v -4.169 c 0 -1.058 0.858 -1.915 1.916 -1.915 h 4.169 c 1.058 0 1.916 0.858 1.916 1.915 v 4.169 C 24.34 73.745 23.482 74.602 22.424 74.602 z" style="stroke: none; stroke-width: 1; stroke-dasharray: none; stroke-linecap: butt; stroke-linejoin: miter; stroke-miterlimit: 10; fill: rgb(255,255,255); fill-rule: nonzero; opacity: 1;" transform=" matrix(1 0 0 1 0 0) " stroke-linecap="round" />
	<polygon points="20.86,73.27 18.8,69.83 20.09,69.06 21.17,70.87 25.14,66.97 26.19,68.04 " style="stroke: none; stroke-width: 1; stroke-dasharray: none; stroke-linecap: butt; stroke-linejoin: miter; stroke-miterlimit: 10; fill: rgb(141,201,78); fill-rule: nonzero; opacity: 1;" transform="  matrix(1 0 0 1 0 0) "/>
	<rect x="28.58" y="72.18" rx="0" ry="0" width="12.74" height="1" style="stroke: none; stroke-width: 1; stroke-dasharray: none; stroke-linecap: butt; stroke-linejoin: miter; stroke-miterlimit: 10; fill: rgb(204,204,204); fill-rule: nonzero; opacity: 1;" transform=" matrix(1 0 0 1 0 0) "/>
	<rect x="28.58" y="68.83" rx="0" ry="0" width="15.74" height="1" style="stroke: none; stroke-width: 1; stroke-dasharray: none; stroke-linecap: butt; stroke-linejoin: miter; stroke-miterlimit: 10; fill: rgb(204,204,204); fill-rule: nonzero; opacity: 1;" transform=" matrix(1 0 0 1 0 0) "/>
	<polygon points="24.94,27.73 23.94,27.73 23.94,30.31 40,30.31 40,29.31 24.94,29.31 " style="stroke: none; stroke-width: 1; stroke-dasharray: none; stroke-linecap: butt; stroke-linejoin: miter; stroke-miterlimit: 10; fill: rgb(240,240,240); fill-rule: nonzero; opacity: 1;" transform="  matrix(1 0 0 1 0 0) "/>
	<path d="M 59.028 66.604 c -0.935 0.291 -1.941 0.291 -2.876 0 c -6.378 -1.986 -12.271 3.26 -10.971 10.955 c 1.148 5.441 4.181 10.198 8.387 11.617 c 5.01 -0.966 9.72 -2.764 13.989 -5.243 c 1.117 -1.867 1.953 -4.057 2.442 -6.374 C 71.299 69.864 65.406 64.618 59.028 66.604 z" style="stroke: none; stroke-width: 1; stroke-dasharray: none; stroke-linecap: butt; stroke-linejoin: miter; stroke-miterlimit: 10; fill: rgb(234,87,87); fill-rule: nonzero; opacity: 1;" transform=" matrix(1 0 0 1 0 0) " stroke-linecap="round" />
	<path d="M 69.115 74.039 c -1.382 6.549 -5.696 12.056 -11.525 11.09 c -5.829 0.967 -10.143 -4.54 -11.525 -11.089 c -0.179 -1.058 -0.208 -2.065 -0.114 -3.009 c -0.856 1.814 -1.19 4.041 -0.77 6.528 c 1.148 5.441 4.181 10.198 8.387 11.617 c 5.01 -0.966 9.72 -2.764 13.989 -5.243 c 1.117 -1.867 1.953 -4.057 2.442 -6.374 c 0.42 -2.486 0.086 -4.714 -0.77 -6.527 C 69.323 71.975 69.294 72.981 69.115 74.039 z" style="stroke: none; stroke-width: 1; stroke-dasharray: none; stroke-linecap: butt; stroke-linejoin: miter; stroke-miterlimit: 10; fill: rgb(219,83,83); fill-rule: nonzero; opacity: 1;" transform=" matrix(1 0 0 1 0 0) " stroke-linecap="round" />
	<path d="M 63.946 59.304 c 0.488 4.817 -1.688 7.308 -6.526 7.473 C 56.932 61.96 59.107 59.469 63.946 59.304 z" style="stroke: none; stroke-width: 1; stroke-dasharray: none; stroke-linecap: butt; stroke-linejoin: miter; stroke-miterlimit: 10; fill: rgb(163,226,97); fill-rule: nonzero; opacity: 1;" transform=" matrix(1 0 0 1 0 0) " stroke-linecap="round" />
	<path d="M 63.946 59.304 c -3.127 2.459 -3.045 6.149 -6.526 7.473 C 62.258 66.612 64.433 64.12 63.946 59.304 z" style="stroke: none; stroke-width: 1; stroke-dasharray: none; stroke-linecap: butt; stroke-linejoin: miter; stroke-miterlimit: 10; fill: rgb(141,201,78); fill-rule: nonzero; opacity: 1;" transform=" matrix(1 0 0 1 0 0) " stroke-linecap="round" />
</g>
</svg>